grf
version=1
nRows=11
nColumns=37
inDegrees=no
endheader
time	ground_force_1_vx	ground_force_1_vy	ground_force_1_vz	ground_force_1_px	ground_force_1_py	ground_force_1_pz	ground_moment_1_mx	ground_moment_1_my	ground_moment_1_mz	ground_force_2_vx	ground_force_2_vy	ground_force_2_vz	ground_force_2_px	ground_force_2_py	ground_force_2_pz	ground_moment_2_mx	ground_moment_2_my	ground_moment_2_mz	ground_force_3_vx	ground_force_3_vy	ground_force_3_vz	ground_force_3_px	ground_force_3_py	ground_force_3_pz	ground_moment_3_mx	ground_moment_3_my	ground_moment_3_mz	ground_force_4_vx	ground_force_4_vy	ground_force_4_vz	ground_force_4_px	ground_force_4_py	ground_force_4_pz	ground_moment_4_mx	ground_moment_4_my	ground_moment_4_mz
      1.74000000	      0.00000000	     -0.00000000	      0.00000000	      0.00000000	      0.00000000	      0.00000000	      0.00000000	      0.00000000	      0.00000000	    -11.24052429	     31.24354362	   -435.82934570	   -264.22281962	  -1107.50104052	      0.00000000	      0.00000000	      0.00000000	   5150.54731458	    -15.65824632	    -46.85544068	   -515.34777832	   -250.23624676	   -687.92042037	      0.00000000	      0.00000000	     -0.00000000	  -7463.58399013	      0.00000000	     -0.00000000	      0.00000000	      0.00000000	      0.00000000	      0.00000000	      0.00000000	      0.00000000	      0.00000000
      1.75000000	      0.00000000	     -0.00000000	      0.00000000	      0.00000000	      0.00000000	      0.00000000	      0.00000000	      0.00000000	      0.00000000	    -12.36215210	     30.88191414	   -442.38360596	   -263.43682055	  -1107.87881134	      0.00000000	      0.00000000	     -0.00000000	   5222.81885610	    -15.43568055	    -45.43938311	   -511.86190796	   -249.59172224	   -688.15898033	      0.00000000	      0.00000000	     -0.00000000	  -7448.45313211	      0.00000000	     -0.00000000	      0.00000000	      0.00000000	      0.00000000	      0.00000000	      0.00000000	      0.00000000	      0.00000000
      1.76000000	      0.00000000	     -0.00000000	      0.00000000	      0.00000000	      0.00000000	      0.00000000	      0.00000000	      0.00000000	      0.00000000	    -13.87169838	     31.90761375	   -448.38104248	   -263.32076107	  -1107.98191315	      0.00000000	      0.00000000	      0.00000000	   5138.45538626	    -15.25825891	    -44.64333973	   -513.25292969	   -250.50009790	   -688.39358388	      0.00000000	      0.00000000	     -0.00000000	  -7536.99076349	      0.00000000	     -0.00000000	      0.00000000	      0.00000000	      0.00000000	      0.00000000	      0.00000000	      0.00000000	      0.00000000
      1.77000000	      0.00000000	     -0.00000000	      0.00000000	      0.00000000	      0.00000000	      0.00000000	      0.00000000	      0.00000000	      0.00000000	    -14.76576519	     32.53164673	   -453.66528320	   -263.46031375	  -1108.05545059	      0.00000000	      0.00000000	      0.00000000	   5357.34928177	    -14.19134043	    -43.49545927	   -513.42510986	   -252.32632017	   -688.25739707	      0.00000000	      0.00000000	     -0.00000000	  -7514.91390377	      0.00000000	     -0.00000000	      0.00000000	      0.00000000	      0.00000000	      0.00000000	      0.00000000	      0.00000000	      0.00000000
      1.78000000	      0.00000000	     -0.00000000	      0.00000000	      0.00000000	      0.00000000	      0.00000000	      0.00000000	      0.00000000	      0.00000000	    -14.85076618	     32.39850616	   -459.15280151	   -264.34902060	  -1107.80828717	      0.00000000	      0.00000000	     -0.00000000	   5381.32454845	    -13.83576675	    -43.10201905	   -507.48983765	   -253.51192859	   -688.12473849	      0.00000000	      0.00000000	     -0.00000000	  -7032.99715674	      0.00000000	     -0.00000000	      0.00000000	      0.00000000	      0.00000000	      0.00000000	      0.00000000	      0.00000000	      0.00000000
      1.79000000	      0.00000000	     -0.00000000	      0.00000000	      0.00000000	      0.00000000	      0.00000000	      0.00000000	      0.00000000	      0.00000000	    -13.82762909	     31.68349838	   -462.32055664	   -264.96852189	  -1107.45462951	      0.00000000	      0.00000000	      0.00000000	   5434.23083444	    -12.59693517	    -42.43994412	   -498.57766724	   -255.46612973	   -687.79661196	      0.00000000	      0.00000000	     -0.00000000	  -6865.26656957	      0.00000000	     -0.00000000	      0.00000000	      0.00000000	      0.00000000	      0.00000000	      0.00000000	      0.00000000	      0.00000000
      1.80000000	      0.00000000	     -0.00000000	      0.00000000	      0.00000000	      0.00000000	      0.00000000	      0.00000000	      0.00000000	      0.00000000	    -13.42644119	     32.13177109	   -463.19036865	   -265.87010284	  -1108.00250010	      0.00000000	      0.00000000	      0.00000000	   5481.08048660	    -10.90989940	    -40.09728527	   -489.33450317	   -257.05105642	   -688.09710143	      0.00000000	      0.00000000	     -0.00000000	  -6732.96044646	      0.00000000	     -0.00000000	      0.00000000	      0.00000000	      0.00000000	      0.00000000	      0.00000000	      0.00000000	      0.00000000
      1.81000000	      0.00000000	     -0.00000000	      0.00000000	      0.00000000	      0.00000000	      0.00000000	      0.00000000	      0.00000000	      0.00000000	    -12.22144127	     31.41786957	   -461.96096802	   -266.01183191	  -1108.02749741	      0.00000000	      0.00000000	      0.00000000	   5582.82476336	     -8.69301451	    -36.91910858	   -482.17840576	   -258.94000710	   -688.04026758	      0.00000000	      0.00000000	     -0.00000000	  -6708.64033496	      0.00000000	     -0.00000000	      0.00000000	      0.00000000	      0.00000000	      0.00000000	      0.00000000	      0.00000000	      0.00000000
      1.82000000	      0.00000000	     -0.00000000	      0.00000000	      0.00000000	      0.00000000	      0.00000000	      0.00000000	      0.00000000	      0.00000000	    -10.66023827	     31.19591904	   -461.78662109	   -266.94873744	  -1108.03948764	      0.00000000	      0.00000000	      0.00000000	   5691.40584288	     -6.74097116	    -33.56328524	   -472.74923706	   -260.66745304	   -688.12371864	      0.00000000	      0.00000000	     -0.00000000	  -6431.82601214	      0.00000000	     -0.00000000	      0.00000000	      0.00000000	      0.00000000	      0.00000000	      0.00000000	      0.00000000	      0.00000000
      1.83000000	      0.00000000	     -0.00000000	      0.00000000	      0.00000000	      0.00000000	      0.00000000	      0.00000000	      0.00000000	      0.00000000	    -10.61568165	     31.81967545	   -460.36981201	   -267.03533099	  -1108.60528161	      0.00000000	      0.00000000	      0.00000000	   5515.17492345	     -4.83455499	    -30.86824375	   -461.40167236	   -262.12665991	   -687.41294116	      0.00000000	      0.00000000	     -0.00000000	  -6371.07980677	      0.00000000	     -0.00000000	      0.00000000	      0.00000000	      0.00000000	      0.00000000	      0.00000000	      0.00000000	      0.00000000
      1.84000000	      0.00000000	     -0.00000000	      0.00000000	      0.00000000	      0.00000000	      0.00000000	      0.00000000	      0.00000000	      0.00000000	    -10.83904266	     32.44348526	   -457.36816406	   -267.75437551	  -1108.48433313	      0.00000000	      0.00000000	     -0.00000000	   5580.04467094	     -2.79326069	    -28.57118964	   -449.35617065	   -262.28871359	   -687.82020816	      0.00000000	      0.00000000	     -0.00000000	  -6246.86752211	      0.00000000	     -0.00000000	      0.00000000	      0.00000000	      0.00000000	      0.00000000	      0.00000000	      0.00000000	      0.00000000
